<?xml version="1.0" encoding="utf-8"?>
<!-- Generator: Adobe Illustrator 26.5.0, SVG Export Plug-In . SVG Version: 6.00 Build 0)  -->
<svg version="1.1" id="Layer_1" xmlns="http://www.w3.org/2000/svg" xmlns:xlink="http://www.w3.org/1999/xlink" x="0px" y="0px"
	 viewBox="0 0 162 162" style="enable-background:new 0 0 162 162;" xml:space="preserve">
<style type="text/css">
	.st0{fill:#FFFFFF;}
</style>
<g transform="translate(288, 192) rotate(0, 48, 48) translate(0, 96) scale(1, -1)">
	<polyline class="st0" points="-270.72,142.96 -270.72,141.13 -210.33,141.13 -210.33,142.96 	"/>
	<rect x="-274.38" y="205.18" class="st0" width="1.83" height="-60.39"/>
	<rect x="-274.38" y="271.06" class="st0" width="1.83" height="-60.39"/>
	<rect x="-270.72" y="274.72" class="st0" width="60.39" height="-1.83"/>
	<rect x="-204.84" y="274.72" class="st0" width="60.39" height="-1.83"/>
	<rect x="-142.62" y="271.06" class="st0" width="1.83" height="-60.39"/>
	<rect x="-142.62" y="205.18" class="st0" width="1.83" height="-60.39"/>
	<rect x="-204.84" y="142.96" class="st0" width="60.39" height="-1.83"/>
	<rect x="-208.5" y="271.06" class="st0" width="1.83" height="-60.39"/>
	<rect x="-208.5" y="205.18" class="st0" width="1.83" height="-60.39"/>
	<rect x="-204.84" y="208.84" class="st0" width="60.39" height="-1.83"/>
	<rect x="-270.72" y="208.84" class="st0" width="60.39" height="-1.83"/>
	
		<rect x="-175.56" y="216.39" transform="matrix(0.7071 -0.7071 0.7071 0.7071 -174.8843 -72.2405)" class="st0" width="1.83" height="-82.82"/>
	
		<rect x="-175.56" y="216.39" transform="matrix(0.7071 -0.7071 0.7071 0.7071 -174.8843 -72.2405)" class="st0" width="1.83" height="-82.82"/>
	
		<rect x="-216.05" y="241.78" transform="matrix(0.7071 -0.7071 0.7071 0.7071 -221.4695 -52.9443)" class="st0" width="82.82" height="-1.83"/>
</g>
</svg>
