<svg xmlns="http://www.w3.org/2000/svg" width="29.723" height="29.723" viewBox="0 0 29.723 29.723">
  <path id="noun-fullscreen-1345526" d="M152.007,56H129.715A3.719,3.719,0,0,0,126,59.715V82.007a3.719,3.719,0,0,0,3.715,3.715h22.292a3.719,3.719,0,0,0,3.715-3.715V59.715A3.719,3.719,0,0,0,152.007,56ZM137.146,79.778a.743.743,0,0,1,0,1.486H131.2a.777.777,0,0,1-.284-.057.743.743,0,0,1-.4-.4.752.752,0,0,1-.057-.284V74.577a.743.743,0,0,1,1.486,0v4.151l4.675-4.675A.743.743,0,0,1,137.67,75.1L133,79.778Zm.526-13.158a.744.744,0,0,1-1.052,1.052L131.945,63v4.151a.743.743,0,0,1-1.486,0V61.2a.724.724,0,0,1,.058-.284.743.743,0,0,1,.4-.4.764.764,0,0,1,.282-.056h5.945a.743.743,0,0,1,0,1.486H133Zm13.592,13.9a.724.724,0,0,1-.058.284.743.743,0,0,1-.4.4.763.763,0,0,1-.282.057h-5.945a.743.743,0,0,1,0-1.486h4.151L144.052,75.1a.743.743,0,0,1,1.051-1.051l4.675,4.675V74.577a.743.743,0,1,1,1.486,0Zm0-13.375a.743.743,0,0,1-1.486,0V63L145.1,67.671a.743.743,0,1,1-1.052-1.049l4.677-4.677h-4.151a.743.743,0,0,1,0-1.486h5.945a.777.777,0,0,1,.284.056.743.743,0,0,1,.459.686Z" transform="translate(-126 -56)" fill="#4ba273"/>
</svg>
