<svg xmlns="http://www.w3.org/2000/svg" width="19.542" height="19.542" viewBox="0 0 19.542 19.542">
  <path id="Path_4" data-name="Path 4" d="M151.794,78.536a3.237,3.237,0,0,0-2.459,1.145L144.327,76.9a4.483,4.483,0,0,0,0-3.233l5.009-2.785a3.392,3.392,0,1,0-.633-1.138l-5.009,2.785a4.56,4.56,0,1,0,0,5.51l5.009,2.785a3.212,3.212,0,0,0-.165.974,3.257,3.257,0,1,0,3.257-3.257Zm0-11.725a1.954,1.954,0,1,1-1.954,1.954A1.956,1.956,0,0,1,151.794,66.811ZM140.069,78.536a3.257,3.257,0,1,1,3.257-3.257A3.261,3.261,0,0,1,140.069,78.536Zm11.725,5.211a1.954,1.954,0,1,1,1.954-1.954A1.956,1.956,0,0,1,151.794,83.747Z" transform="translate(-135.509 -65.508)" fill="#fff"/>
</svg>
