<svg xmlns="http://www.w3.org/2000/svg" width="27.484" height="25.414" viewBox="0 0 27.484 25.414">
  <g id="Group_1" data-name="Group 1" transform="translate(-239 14)">
    <path id="Path_1" data-name="Path 1" d="M46.913.673a.624.624,0,0,1,.352-1.2l5.416,1.547a.6.6,0,0,1,.492.492L53.806,5.6,73.428,8.268a.624.624,0,0,1,.492.844l-3.376,9.424a.713.713,0,0,1-.633.422H55.072a.675.675,0,0,1-.633-.492L51.978,2.079,46.914.673Zm7.033,6.189,1.688,10.9H69.489l3.024-8.369Z" transform="translate(192.52 -13.452)" fill="#fff"/>
    <path id="Path_2" data-name="Path 2" d="M240.2,442.11a2.673,2.673,0,1,1-2.673,2.673A2.671,2.671,0,0,1,240.2,442.11Zm0,1.266a1.406,1.406,0,1,0,1.407,1.406A1.411,1.411,0,0,0,240.2,443.376Z" transform="translate(10.131 -436.041)" fill="#fff"/>
    <path id="Path_3" data-name="Path 3" d="M451.107,442.11a2.673,2.673,0,1,1,0,5.345,2.674,2.674,0,0,1,0-5.345Zm0,1.266a1.406,1.406,0,1,0,1.407,1.406A1.411,1.411,0,0,0,451.107,443.376Z" transform="translate(-191.278 -436.041)" fill="#fff"/>
  </g>
</svg>
